<svg width="103" height="102" viewBox="0 0 103 102" fill="none" xmlns="http://www.w3.org/2000/svg">
<ellipse cx="51.5" cy="51" rx="51.5" ry="51" transform="matrix(1 0 0 -1 0 102)" fill="#C3F73A"/>
<g clipPath="url(#clip0_403_317)">
<path d="M46.4045 21.75L25 43.1545C24.0904 44.0635 23.4709 45.2219 23.2198 46.483C22.9688 47.7442 23.0974 49.0515 23.5895 50.2395L23.8105 50.7108C24.3555 51.7761 25.1841 52.6702 26.2048 53.2947C27.2256 53.9192 28.3989 54.2498 29.5955 54.25H38V77C38 78.7239 38.6848 80.3772 39.9038 81.5962C41.1228 82.8152 42.7761 83.5 44.5 83.5H57.5L57.9875 83.4838C59.6227 83.3608 61.1511 82.6243 62.2661 81.4218C63.3812 80.2194 64.0005 78.6399 64 77L63.9967 54.25H72.4045C73.6899 54.2498 74.9463 53.8684 76.015 53.1541C77.0836 52.4399 77.9165 51.4248 78.4084 50.2373C78.9002 49.0497 79.029 47.743 78.7783 46.4823C78.5276 45.2216 77.9087 44.0636 77 43.1545L55.5955 21.75C54.3765 20.5315 52.7235 19.8469 51 19.8469C49.2764 19.8469 47.6234 20.5315 46.4045 21.75Z" fill="#1B1B1E"/>
</g>
<defs>
<clipPath id="clip0_403_317">
<rect width="78" height="78" fill="white" transform="translate(12 12)"/>
</clipPath>
</defs>
</svg>
